#!OML:ASF X:\für Bonn\!DataBase\2005_08_12_Daniel\c3d\Daniel.ASF
:FULLY-SPECIFIED
:DEGREES
2175
root -2.61899 17.3176 -4.41986 293.461 -72.7309 -322.732
lowerback 64.8112 10.1328 8.64062
upperback 12.1666 13.8604 -3.82379
thorax -5.23829 6.20144 -13.531
lowerneck 1.63931 -9.15353 -8.02176
upperneck 9.76452 -13.0209 9.59243
head 3.79721 -6.40711 3.72892
rclavicle 4.13472e-014 -4.13472e-014
rhumerus 43.2301 4.57389 -85.8244
rradius 130.712
rwrist -17.9903
rhand -12.7451 41.9795
rfingers 7.12502
rthumb 13.3389 12.4264
lclavicle 4.13472e-014 -4.13472e-014
lhumerus -54.0348 7.82067 68.4755
lradius 83.7725
lwrist 41.9202
lhand -17.4246 -9.56676
lfingers 7.12502
lthumb 8.82561 20.2287
rfemur 30.3101 3.30641 14.9405
rtibia 6.92526
rfoot -19.2663 -17.5404
rtoes -0.935464
lfemur -88.916 -2.39976 -41.2162
ltibia 117.799
lfoot 12.2398 -4.66378
ltoes -2.11352
2176
root -2.62966 17.2995 -4.4441 294.696 -72.5138 -323.848
lowerback 64.4272 10.0727 8.50008
upperback 12.1448 13.7258 -3.82721
thorax -5.31204 6.13513 -13.4359
lowerneck 1.48736 -9.18607 -8.2775
upperneck 10.0618 -13.0896 9.70291
head 3.94199 -6.43773 3.78297
rclavicle -5.1684e-014 2.22639e-014
rhumerus 43.5499 4.52366 -85.2576
rradius 130.84
rwrist -18.6088
rhand -12.9312 42.0885
rfingers 7.12502
rthumb 13.1595 12.5237
lclavicle -5.1684e-014 2.22639e-014
lhumerus -53.79 7.74379 68.6614
lradius 84.1244
lwrist 41.656
lhand -16.9204 -9.90395
lfingers 7.12502
lthumb 9.31212 19.8704
rfemur 29.4235 3.36164 15.2414
rtibia 8.5354
rfoot -20.2376 -17.3769
rtoes -0.777931
lfemur -88.5044 -2.17075 -41.4037
ltibia 117.61
lfoot 12.8473 -4.88239
ltoes -1.90709
2177
root -2.64066 17.2821 -4.46608 295.847 -72.2677 -324.891
lowerback 63.9967 10.0067 8.34265
upperback 12.1503 13.5703 -3.83386
thorax -5.35891 6.06245 -13.3258
lowerneck 1.32763 -9.19853 -8.56927
upperneck 10.3491 -13.1332 9.84906
head 4.0878 -6.45617 3.85482
rclavicle -8.11041e-014 3.18055e-014
rhumerus 43.7113 4.38395 -84.6097
rradius 131.052
rwrist -19.1395
rhand -13.091 42.1212
rfingers 7.12502
rthumb 13.0055 12.5466
lclavicle -8.11041e-014 3.18055e-014
lhumerus -53.3187 7.66488 68.9443
lradius 84.4621
lwrist 41.24
lhand -16.2507 -9.99736
lfingers 7.12502
lthumb 9.95827 19.7471
rfemur 28.6393 3.4235 15.5138
rtibia 9.97485
rfoot -21.1076 -17.2473
rtoes -0.616979
lfemur -87.9386 -1.9055 -41.5736
ltibia 117.396
lfoot 13.5276 -5.15337
ltoes -1.49947
2178
root -2.65267 17.2653 -4.4844 296.905 -72.0215 -325.818
lowerback 63.4781 9.93983 8.18426
upperback 12.1697 13.4101 -3.86753
thorax -5.38259 5.99443 -13.2415
lowerneck 1.20573 -9.1934 -8.74267
upperneck 10.5994 -13.1503 9.95815
head 4.20372 -6.46054 3.90234
rclavicle 4.13472e-014 1.98785e-014
rhumerus 43.7202 4.20469 -83.9283
rradius 131.221
rwrist -19.4735
rhand -13.2866 42.0494
rfingers 7.12502
rthumb 12.8169 12.4629
lclavicle 4.13472e-014 1.98785e-014
lhumerus -52.6981 7.47937 69.2876
lradius 84.8741
lwrist 40.8265
lhand -15.5841 -9.81703
lfingers 7.12502
lthumb 10.6014 19.8956
rfemur 27.896 3.51805 15.7657
rtibia 11.3164
rfoot -21.9564 -17.1132
rtoes -0.451726
lfemur -87.2811 -1.60752 -41.7044
ltibia 117.178
lfoot 14.1974 -5.39479
ltoes -0.977842
2179
root -2.66617 17.2462 -4.50065 297.894 -71.7944 -326.672
lowerback 62.9335 9.88541 8.00027
upperback 12.1754 13.2508 -3.89942
thorax -5.42317 5.92356 -13.1454
lowerneck 1.05013 -9.17062 -8.90133
upperneck 10.9104 -13.144 10.0378
head 4.33863 -6.45225 3.93793
rclavicle 7.95139e-014 -1.24837e-013
rhumerus 43.6286 3.9737 -83.2602
rradius 131.336
rwrist -19.6521
rhand -13.5079 41.8796
rfingers 7.12502
rthumb 12.6036 12.2798
lclavicle 7.95139e-014 -1.24837e-013
lhumerus -52.0033 7.21823 69.7239
lradius 85.3713
lwrist 40.4916
lhand -14.9762 -9.47639
lfingers 7.12502
lthumb 11.1877 20.2053
rfemur 27.1848 3.70837 16.0634
rtibia 12.6031
rfoot -22.8372 -17.0357
rtoes -0.400944
lfemur -86.5271 -1.26088 -41.7531
ltibia 116.947
lfoot 14.9022 -5.57776
ltoes -0.172915
2180
root -2.68239 17.2264 -4.51355 298.815 -71.5567 -327.422
lowerback 62.302 9.82326 7.78566
upperback 12.1627 13.0628 -3.97985
thorax -5.48089 5.84235 -13.0815
lowerneck 1.00929 -9.10282 -9.01056
upperneck 11.1743 -13.0907 10.1898
head 4.43679 -6.42111 3.99864
rclavicle 9.38264e-014 2.38542e-015
rhumerus 43.3713 3.69365 -82.7194
rradius 131.391
rwrist -19.7306
rhand -13.6872 41.6114
rfingers 7.12502
rthumb 12.4307 12.0011
lclavicle 9.38264e-014 2.38542e-015
lhumerus -51.2678 6.78865 70.1905
lradius 86.0107
lwrist 40.2959
lhand -14.5934 -8.90302
lfingers 7.12502
lthumb 11.5569 20.7583
rfemur 26.4652 3.97164 16.3507
rtibia 13.8651
rfoot -23.7702 -16.9216
rtoes -0.22597
lfemur -85.6771 -0.891393 -41.7619
ltibia 116.67
lfoot 15.5631 -5.65981
ltoes 0.211967
2181
root -2.69955 17.2053 -4.52375 299.792 -71.3312 -328.224
lowerback 61.6512 9.71948 7.58104
upperback 12.1233 12.8352 -4.08886
thorax -5.56614 5.74224 -13.0405
lowerneck 1.01639 -8.994 -9.06289
upperneck 11.4157 -12.9854 10.3382
head 4.51066 -6.36462 4.05671
rclavicle 3.06128e-014 5.96354e-014
rhumerus 42.9993 3.44936 -82.2814
rradius 131.393
rwrist -19.6431
rhand -13.9088 41.2169
rfingers 7.12502
rthumb 12.217 11.5937
lclavicle 3.06128e-014 5.96354e-014
lhumerus -50.4866 6.2216 70.6859
lradius 86.7092
lwrist 40.3294
lhand -14.4394 -8.3323
lfingers 7.12502
lthumb 11.7054 21.3207
rfemur 25.7899 4.27993 16.6873
rtibia 15.0727
rfoot -24.7818 -16.7908
rtoes -0.036257
lfemur -84.7317 -0.542688 -41.6502
ltibia 116.354
lfoot 16.1805 -5.6186
ltoes -0.00394229
2182
root -2.71869 17.1842 -4.53222 300.742 -71.089 -328.957
lowerback 60.9263 9.61579 7.33876
upperback 12.0674 12.5863 -4.22639
thorax -5.66829 5.63258 -13.007
lowerneck 1.09101 -8.85904 -9.02211
upperneck 11.6307 -12.8471 10.4601
head 4.55379 -6.29214 4.09904
rclavicle -1.39149e-013 1.51076e-014
rhumerus 42.5059 3.18536 -81.9749
rradius 131.299
rwrist -19.4578
rhand -14.1751 40.8598
rfingers 7.12502
rthumb 11.9602 11.2215
lclavicle -1.39149e-013 1.51076e-014
lhumerus -49.6627 5.62336 71.1622
lradius 87.3371
lwrist 40.4553
lhand -14.3452 -7.88297
lfingers 7.12502
lthumb 11.7962 21.7648
rfemur 25.1145 4.59299 17.0066
rtibia 16.2032
rfoot -25.7102 -16.7274
rtoes -0.186669
lfemur -83.7239 -0.20494 -41.4859
ltibia 115.982
lfoot 16.8258 -5.43539
ltoes -0.361016
2183
root -2.7385 17.1663 -4.53793 301.618 -70.8511 -329.612
lowerback 60.179 9.51163 7.0884
upperback 12.0134 12.3317 -4.37671
thorax -5.7628 5.52131 -12.9788
lowerneck 1.23802 -8.70839 -8.939
upperneck 11.7977 -12.689 10.5781
head 4.565 -6.21161 4.13945
rclavicle -2.8625e-014 -5.1684e-014
rhumerus 41.9608 2.92206 -81.7237
rradius 131.142
rwrist -19.1822
rhand -14.5025 40.5024
rfingers 7.12502
rthumb 11.6445 10.8459
lclavicle -2.8625e-014 -5.1684e-014
lhumerus -48.7084 5.09099 71.6949
lradius 87.7517
lwrist 40.5351
lhand -14.2426 -7.78965
lfingers 7.12502
lthumb 11.8952 21.8524
rfemur 24.482 4.86847 17.2937
rtibia 17.2374
rfoot -26.4679 -16.747
rtoes -0.492276
lfemur -82.6438 0.151811 -41.2694
ltibia 115.561
lfoot 17.5179 -5.18823
ltoes -0.476215
2184
root -2.75936 17.1491 -4.54187 302.574 -70.6226 -330.313
lowerback 59.3644 9.39443 6.82168
upperback 11.9381 12.0607 -4.52218
thorax -5.88002 5.39918 -12.9302
lowerneck 1.45084 -8.5273 -8.86311
upperneck 11.9369 -12.4935 10.7089
head 4.55389 -6.11556 4.19101
rclavicle -2.22639e-014 1.35174e-014
rhumerus 41.3363 2.71693 -81.5226
rradius 130.953
rwrist -18.9499
rhand -14.8941 40.2173
rfingers 7.12502
rthumb 11.2669 10.5398
lclavicle -2.22639e-014 1.35174e-014
lhumerus -47.7291 4.53774 72.2697
lradius 87.9981
lwrist 40.6443
lhand -14.1815 -8.00559
lfingers 7.12502
lthumb 11.9541 21.6331
rfemur 23.8841 5.12011 17.5919
rtibia 18.1411
rfoot -27.1587 -16.7913
rtoes -0.76217
lfemur -81.5466 0.47043 -40.9666
ltibia 115.099
lfoot 18.2799 -4.86374
ltoes -0.285911
